ISO-10303-21;
HEADER;
FILE_DESCRIPTION(('CATIA V5 STEP Exchange'),'2;1');

FILE_NAME('cube_with_hole.stp','2025-01-11T10:44:26+00:00',('none'),('none'),'CATIA Version 5 Release 20 GA (IN-10)','CATIA V5 STEP AP203','none');

FILE_SCHEMA(('CONFIG_CONTROL_DESIGN'));

ENDSEC;
/* file written by CATIA V5R20 */
DATA;
#5=PRODUCT('\X2\96F64EF6\X0\1','','',(#2)) ;
#1=APPLICATION_CONTEXT('configuration controlled 3D design of mechanical parts and assemblies') ;
#14=PRODUCT_DEFINITION('',' ',#6,#3) ;
#16=SECURITY_CLASSIFICATION(' ',' ',#15) ;
#15=SECURITY_CLASSIFICATION_LEVEL('unclassified') ;
#47=CARTESIAN_POINT(' ',(0.,0.,0.)) ;
#52=CARTESIAN_POINT('Axis2P3D Location',(35.2864379883,34.7507896423,31.839999999)) ;
#57=CARTESIAN_POINT('Axis2P3D Location',(35.2864379883,34.7507896423,0.)) ;
#61=CARTESIAN_POINT('Vertex',(28.5932953697,34.7507896423,0.)) ;
#63=CARTESIAN_POINT('Vertex',(41.9795806068,34.7507896423,0.)) ;
#66=CARTESIAN_POINT('Line Origine',(28.5932953697,34.7507896423,31.839999999)) ;
#70=CARTESIAN_POINT('Vertex',(28.5932953697,34.7507896423,65.)) ;
#73=CARTESIAN_POINT('Axis2P3D Location',(35.2864379883,34.7507896423,65.)) ;
#77=CARTESIAN_POINT('Vertex',(41.9795806068,34.7507896423,65.)) ;
#80=CARTESIAN_POINT('Line Origine',(41.9795806068,34.7507896423,31.839999999)) ;
#92=CARTESIAN_POINT('Axis2P3D Location',(35.2864379883,34.7507896423,0.)) ;
#97=CARTESIAN_POINT('Axis2P3D Location',(35.2864379883,34.7507896423,65.)) ;
#109=CARTESIAN_POINT('Axis2P3D Location',(0.,0.,65.)) ;
#114=CARTESIAN_POINT('Line Origine',(35.,0.,65.)) ;
#118=CARTESIAN_POINT('Vertex',(0.,0.,65.)) ;
#120=CARTESIAN_POINT('Vertex',(70.,0.,65.)) ;
#123=CARTESIAN_POINT('Line Origine',(70.,35.,65.)) ;
#127=CARTESIAN_POINT('Vertex',(70.,70.,65.)) ;
#130=CARTESIAN_POINT('Line Origine',(35.,70.,65.)) ;
#134=CARTESIAN_POINT('Vertex',(0.,70.,65.)) ;
#137=CARTESIAN_POINT('Line Origine',(0.,35.,65.)) ;
#153=CARTESIAN_POINT('Axis2P3D Location',(0.,0.,0.)) ;
#158=CARTESIAN_POINT('Line Origine',(0.,0.,32.5)) ;
#162=CARTESIAN_POINT('Vertex',(0.,0.,0.)) ;
#165=CARTESIAN_POINT('Line Origine',(35.,0.,0.)) ;
#169=CARTESIAN_POINT('Vertex',(70.,0.,0.)) ;
#172=CARTESIAN_POINT('Line Origine',(70.,0.,32.5)) ;
#184=CARTESIAN_POINT('Axis2P3D Location',(70.,0.,0.)) ;
#189=CARTESIAN_POINT('Line Origine',(70.,35.,0.)) ;
#193=CARTESIAN_POINT('Vertex',(70.,70.,0.)) ;
#196=CARTESIAN_POINT('Line Origine',(70.,70.,32.5)) ;
#208=CARTESIAN_POINT('Axis2P3D Location',(70.,70.,0.)) ;
#213=CARTESIAN_POINT('Line Origine',(35.,70.,0.)) ;
#217=CARTESIAN_POINT('Vertex',(0.,70.,0.)) ;
#220=CARTESIAN_POINT('Line Origine',(0.,70.,32.5)) ;
#232=CARTESIAN_POINT('Axis2P3D Location',(0.,70.,0.)) ;
#237=CARTESIAN_POINT('Line Origine',(0.,35.,0.)) ;
#249=CARTESIAN_POINT('Axis2P3D Location',(0.,0.,0.)) ;
#53=DIRECTION('Axis2P3D Direction',(0.,0.,1.)) ;
#54=DIRECTION('Axis2P3D XDirection',(1.,0.,0.)) ;
#58=DIRECTION('Axis2P3D Direction',(0.,0.,1.)) ;
#67=DIRECTION('Vector Direction',(0.,0.,1.)) ;
#74=DIRECTION('Axis2P3D Direction',(0.,0.,1.)) ;
#81=DIRECTION('Vector Direction',(0.,0.,1.)) ;
#93=DIRECTION('Axis2P3D Direction',(0.,0.,1.)) ;
#98=DIRECTION('Axis2P3D Direction',(0.,0.,1.)) ;
#110=DIRECTION('Axis2P3D Direction',(0.,0.,1.)) ;
#111=DIRECTION('Axis2P3D XDirection',(1.,0.,0.)) ;
#115=DIRECTION('Vector Direction',(1.,0.,0.)) ;
#124=DIRECTION('Vector Direction',(0.,1.,0.)) ;
#131=DIRECTION('Vector Direction',(-1.,0.,0.)) ;
#138=DIRECTION('Vector Direction',(0.,-1.,0.)) ;
#154=DIRECTION('Axis2P3D Direction',(0.,-1.,0.)) ;
#155=DIRECTION('Axis2P3D XDirection',(1.,0.,0.)) ;
#159=DIRECTION('Vector Direction',(0.,0.,1.)) ;
#166=DIRECTION('Vector Direction',(1.,0.,0.)) ;
#173=DIRECTION('Vector Direction',(0.,0.,1.)) ;
#185=DIRECTION('Axis2P3D Direction',(1.,0.,0.)) ;
#186=DIRECTION('Axis2P3D XDirection',(0.,1.,0.)) ;
#190=DIRECTION('Vector Direction',(0.,1.,0.)) ;
#197=DIRECTION('Vector Direction',(0.,0.,1.)) ;
#209=DIRECTION('Axis2P3D Direction',(0.,1.,-0.)) ;
#210=DIRECTION('Axis2P3D XDirection',(-1.,0.,0.)) ;
#214=DIRECTION('Vector Direction',(-1.,0.,0.)) ;
#221=DIRECTION('Vector Direction',(0.,0.,1.)) ;
#233=DIRECTION('Axis2P3D Direction',(-1.,0.,0.)) ;
#234=DIRECTION('Axis2P3D XDirection',(0.,-1.,0.)) ;
#238=DIRECTION('Vector Direction',(0.,-1.,0.)) ;
#250=DIRECTION('Axis2P3D Direction',(0.,0.,1.)) ;
#251=DIRECTION('Axis2P3D XDirection',(1.,0.,0.)) ;
#48=AXIS2_PLACEMENT_3D(' ',#47,$,$) ;
#55=AXIS2_PLACEMENT_3D('Cylinder Axis2P3D',#52,#53,#54) ;
#59=AXIS2_PLACEMENT_3D('Circle Axis2P3D',#57,#58,$) ;
#75=AXIS2_PLACEMENT_3D('Circle Axis2P3D',#73,#74,$) ;
#94=AXIS2_PLACEMENT_3D('Circle Axis2P3D',#92,#93,$) ;
#99=AXIS2_PLACEMENT_3D('Circle Axis2P3D',#97,#98,$) ;
#112=AXIS2_PLACEMENT_3D('Plane Axis2P3D',#109,#110,#111) ;
#156=AXIS2_PLACEMENT_3D('Plane Axis2P3D',#153,#154,#155) ;
#187=AXIS2_PLACEMENT_3D('Plane Axis2P3D',#184,#185,#186) ;
#211=AXIS2_PLACEMENT_3D('Plane Axis2P3D',#208,#209,#210) ;
#235=AXIS2_PLACEMENT_3D('Plane Axis2P3D',#232,#233,#234) ;
#252=AXIS2_PLACEMENT_3D('Plane Axis2P3D',#249,#250,#251) ;
#40=PRODUCT_DEFINITION_SHAPE(' ',' ',#14) ;
#31=APPROVAL_PERSON_ORGANIZATION(#25,#21,#19) ;
#25=PERSON_AND_ORGANIZATION(#22,#23) ;
#22=PERSON(' ',' ',' ',$,$,$) ;
#23=ORGANIZATION(' ',' ',' ') ;
#21=APPROVAL(#20,' ') ;
#20=APPROVAL_STATUS('not_yet_approved') ;
#19=APPROVAL_ROLE('APPROVER') ;
#13=DATE_AND_TIME(#11,#12) ;
#12=LOCAL_TIME(18,44,24.,#10) ;
#10=COORDINATED_UNIVERSAL_TIME_OFFSET(0,0,.AHEAD.) ;
#86=ORIENTED_EDGE('',*,*,#65,.F.) ;
#87=ORIENTED_EDGE('',*,*,#72,.F.) ;
#88=ORIENTED_EDGE('',*,*,#79,.T.) ;
#89=ORIENTED_EDGE('',*,*,#84,.T.) ;
#103=ORIENTED_EDGE('',*,*,#96,.F.) ;
#104=ORIENTED_EDGE('',*,*,#84,.F.) ;
#105=ORIENTED_EDGE('',*,*,#101,.T.) ;
#106=ORIENTED_EDGE('',*,*,#72,.T.) ;
#143=ORIENTED_EDGE('',*,*,#122,.T.) ;
#144=ORIENTED_EDGE('',*,*,#129,.T.) ;
#145=ORIENTED_EDGE('',*,*,#136,.T.) ;
#146=ORIENTED_EDGE('',*,*,#141,.T.) ;
#149=ORIENTED_EDGE('',*,*,#101,.F.) ;
#150=ORIENTED_EDGE('',*,*,#79,.F.) ;
#178=ORIENTED_EDGE('',*,*,#164,.F.) ;
#179=ORIENTED_EDGE('',*,*,#171,.T.) ;
#180=ORIENTED_EDGE('',*,*,#176,.T.) ;
#181=ORIENTED_EDGE('',*,*,#122,.F.) ;
#202=ORIENTED_EDGE('',*,*,#176,.F.) ;
#203=ORIENTED_EDGE('',*,*,#195,.T.) ;
#204=ORIENTED_EDGE('',*,*,#200,.T.) ;
#205=ORIENTED_EDGE('',*,*,#129,.F.) ;
#226=ORIENTED_EDGE('',*,*,#200,.F.) ;
#227=ORIENTED_EDGE('',*,*,#219,.T.) ;
#228=ORIENTED_EDGE('',*,*,#224,.T.) ;
#229=ORIENTED_EDGE('',*,*,#136,.F.) ;
#243=ORIENTED_EDGE('',*,*,#224,.F.) ;
#244=ORIENTED_EDGE('',*,*,#241,.T.) ;
#245=ORIENTED_EDGE('',*,*,#164,.T.) ;
#246=ORIENTED_EDGE('',*,*,#141,.F.) ;
#255=ORIENTED_EDGE('',*,*,#241,.F.) ;
#256=ORIENTED_EDGE('',*,*,#219,.F.) ;
#257=ORIENTED_EDGE('',*,*,#195,.F.) ;
#258=ORIENTED_EDGE('',*,*,#171,.F.) ;
#261=ORIENTED_EDGE('',*,*,#65,.T.) ;
#262=ORIENTED_EDGE('',*,*,#96,.T.) ;
#151=FACE_BOUND('',#148,.T.) ;
#263=FACE_BOUND('',#260,.T.) ;
#51=CLOSED_SHELL('Closed Shell',(#91,#108,#152,#183,#207,#231,#248,#264)) ;
#68=VECTOR('Line Direction',#67,1.) ;
#82=VECTOR('Line Direction',#81,1.) ;
#116=VECTOR('Line Direction',#115,1.) ;
#125=VECTOR('Line Direction',#124,1.) ;
#132=VECTOR('Line Direction',#131,1.) ;
#139=VECTOR('Line Direction',#138,1.) ;
#160=VECTOR('Line Direction',#159,1.) ;
#167=VECTOR('Line Direction',#166,1.) ;
#174=VECTOR('Line Direction',#173,1.) ;
#191=VECTOR('Line Direction',#190,1.) ;
#198=VECTOR('Line Direction',#197,1.) ;
#215=VECTOR('Line Direction',#214,1.) ;
#222=VECTOR('Line Direction',#221,1.) ;
#239=VECTOR('Line Direction',#238,1.) ;
#266=ADVANCED_BREP_SHAPE_REPRESENTATION('NONE',(#265),#46) ;
#49=SHAPE_REPRESENTATION(' ',(#48),#46) ;
#91=ADVANCED_FACE('\X2\96F64EF651E04F554F53\X0\',(#90),#56,.F.) ;
#108=ADVANCED_FACE('\X2\96F64EF651E04F554F53\X0\',(#107),#56,.F.) ;
#152=ADVANCED_FACE('\X2\96F64EF651E04F554F53\X0\',(#147,#151),#113,.T.) ;
#183=ADVANCED_FACE('\X2\96F64EF651E04F554F53\X0\',(#182),#157,.T.) ;
#207=ADVANCED_FACE('\X2\96F64EF651E04F554F53\X0\',(#206),#188,.T.) ;
#231=ADVANCED_FACE('\X2\96F64EF651E04F554F53\X0\',(#230),#212,.T.) ;
#248=ADVANCED_FACE('\X2\96F64EF651E04F554F53\X0\',(#247),#236,.T.) ;
#264=ADVANCED_FACE('\X2\96F64EF651E04F554F53\X0\',(#259,#263),#253,.F.) ;
#4=APPLICATION_PROTOCOL_DEFINITION('international standard','config_control_design',1994,#1) ;
#32=APPROVAL_DATE_TIME(#13,#21) ;
#265=MANIFOLD_SOLID_BREP('\X2\96F64EF651E04F554F53\X0\',#51) ;
#11=CALENDAR_DATE(2025,11,1) ;
#30=CC_DESIGN_APPROVAL(#21,(#16,#6,#14)) ;
#18=CC_DESIGN_DATE_AND_TIME_ASSIGNMENT(#13,#17,(#16)) ;
#29=CC_DESIGN_DATE_AND_TIME_ASSIGNMENT(#13,#28,(#14)) ;
#17=DATE_TIME_ROLE('classification_date') ;
#28=DATE_TIME_ROLE('creation_date') ;
#27=CC_DESIGN_PERSON_AND_ORGANIZATION_ASSIGNMENT(#25,#26,(#16)) ;
#33=CC_DESIGN_PERSON_AND_ORGANIZATION_ASSIGNMENT(#25,#34,(#6)) ;
#35=CC_DESIGN_PERSON_AND_ORGANIZATION_ASSIGNMENT(#25,#36,(#6,#14)) ;
#37=CC_DESIGN_PERSON_AND_ORGANIZATION_ASSIGNMENT(#25,#38,(#5)) ;
#26=PERSON_AND_ORGANIZATION_ROLE('classification_officer') ;
#34=PERSON_AND_ORGANIZATION_ROLE('design_supplier') ;
#36=PERSON_AND_ORGANIZATION_ROLE('creator') ;
#38=PERSON_AND_ORGANIZATION_ROLE('design_owner') ;
#39=CC_DESIGN_SECURITY_CLASSIFICATION(#16,(#6)) ;
#60=CIRCLE('generated circle',#59,6.69314261855) ;
#76=CIRCLE('generated circle',#75,6.69314261855) ;
#95=CIRCLE('generated circle',#94,6.69314261855) ;
#100=CIRCLE('generated circle',#99,6.69314261855) ;
#267=SHAPE_REPRESENTATION_RELATIONSHIP(' ',' ',#49,#266) ;
#56=CYLINDRICAL_SURFACE('generated cylinder',#55,6.69314261855) ;
#3=DESIGN_CONTEXT(' ',#1,'design') ;
#65=EDGE_CURVE('',#62,#64,#60,.T.) ;
#72=EDGE_CURVE('',#71,#62,#69,.F.) ;
#79=EDGE_CURVE('',#71,#78,#76,.T.) ;
#84=EDGE_CURVE('',#78,#64,#83,.F.) ;
#96=EDGE_CURVE('',#64,#62,#95,.T.) ;
#101=EDGE_CURVE('',#78,#71,#100,.T.) ;
#122=EDGE_CURVE('',#119,#121,#117,.T.) ;
#129=EDGE_CURVE('',#121,#128,#126,.T.) ;
#136=EDGE_CURVE('',#128,#135,#133,.T.) ;
#141=EDGE_CURVE('',#135,#119,#140,.T.) ;
#164=EDGE_CURVE('',#163,#119,#161,.T.) ;
#171=EDGE_CURVE('',#163,#170,#168,.T.) ;
#176=EDGE_CURVE('',#170,#121,#175,.T.) ;
#195=EDGE_CURVE('',#170,#194,#192,.T.) ;
#200=EDGE_CURVE('',#194,#128,#199,.T.) ;
#219=EDGE_CURVE('',#194,#218,#216,.T.) ;
#224=EDGE_CURVE('',#218,#135,#223,.T.) ;
#241=EDGE_CURVE('',#218,#163,#240,.T.) ;
#85=EDGE_LOOP('',(#86,#87,#88,#89)) ;
#102=EDGE_LOOP('',(#103,#104,#105,#106)) ;
#142=EDGE_LOOP('',(#143,#144,#145,#146)) ;
#148=EDGE_LOOP('',(#149,#150)) ;
#177=EDGE_LOOP('',(#178,#179,#180,#181)) ;
#201=EDGE_LOOP('',(#202,#203,#204,#205)) ;
#225=EDGE_LOOP('',(#226,#227,#228,#229)) ;
#242=EDGE_LOOP('',(#243,#244,#245,#246)) ;
#254=EDGE_LOOP('',(#255,#256,#257,#258)) ;
#260=EDGE_LOOP('',(#261,#262)) ;
#90=FACE_OUTER_BOUND('',#85,.T.) ;
#107=FACE_OUTER_BOUND('',#102,.T.) ;
#147=FACE_OUTER_BOUND('',#142,.T.) ;
#182=FACE_OUTER_BOUND('',#177,.T.) ;
#206=FACE_OUTER_BOUND('',#201,.T.) ;
#230=FACE_OUTER_BOUND('',#225,.T.) ;
#247=FACE_OUTER_BOUND('',#242,.T.) ;
#259=FACE_OUTER_BOUND('',#254,.T.) ;
#45=UNCERTAINTY_MEASURE_WITH_UNIT(LENGTH_MEASURE(0.005),#41,'distance_accuracy_value','CONFUSED CURVE UNCERTAINTY') ;
#69=LINE('Line',#66,#68) ;
#83=LINE('Line',#80,#82) ;
#117=LINE('Line',#114,#116) ;
#126=LINE('Line',#123,#125) ;
#133=LINE('Line',#130,#132) ;
#140=LINE('Line',#137,#139) ;
#161=LINE('Line',#158,#160) ;
#168=LINE('Line',#165,#167) ;
#175=LINE('Line',#172,#174) ;
#192=LINE('Line',#189,#191) ;
#199=LINE('Line',#196,#198) ;
#216=LINE('Line',#213,#215) ;
#223=LINE('Line',#220,#222) ;
#240=LINE('Line',#237,#239) ;
#2=MECHANICAL_CONTEXT(' ',#1,'mechanical') ;
#24=PERSONAL_ADDRESS(' ',' ',' ',' ',' ',' ',' ',' ',' ',' ',' ',' ',(#22),' ') ;
#113=PLANE('Plane',#112) ;
#157=PLANE('Plane',#156) ;
#188=PLANE('Plane',#187) ;
#212=PLANE('Plane',#211) ;
#236=PLANE('Plane',#235) ;
#253=PLANE('Plane',#252) ;
#43=PLANE_ANGLE_MEASURE_WITH_UNIT(PLANE_ANGLE_MEASURE(0.0174532925199),#42) ;
#7=PRODUCT_CATEGORY('part',$) ;
#9=PRODUCT_CATEGORY_RELATIONSHIP(' ',' ',#7,#8) ;
#6=PRODUCT_DEFINITION_FORMATION_WITH_SPECIFIED_SOURCE('',' ',#5,.NOT_KNOWN.) ;
#8=PRODUCT_RELATED_PRODUCT_CATEGORY('detail',$,(#5)) ;
#50=SHAPE_DEFINITION_REPRESENTATION(#40,#49) ;
#62=VERTEX_POINT('',#61) ;
#64=VERTEX_POINT('',#63) ;
#71=VERTEX_POINT('',#70) ;
#78=VERTEX_POINT('',#77) ;
#119=VERTEX_POINT('',#118) ;
#121=VERTEX_POINT('',#120) ;
#128=VERTEX_POINT('',#127) ;
#135=VERTEX_POINT('',#134) ;
#163=VERTEX_POINT('',#162) ;
#170=VERTEX_POINT('',#169) ;
#194=VERTEX_POINT('',#193) ;
#218=VERTEX_POINT('',#217) ;
#41=(LENGTH_UNIT()NAMED_UNIT(*)SI_UNIT(.MILLI.,.METRE.)) ;
#42=(NAMED_UNIT(*)PLANE_ANGLE_UNIT()SI_UNIT($,.RADIAN.)) ;
#44=(NAMED_UNIT(*)SI_UNIT($,.STERADIAN.)SOLID_ANGLE_UNIT()) ;
#46=(GEOMETRIC_REPRESENTATION_CONTEXT(3)GLOBAL_UNCERTAINTY_ASSIGNED_CONTEXT((#45))GLOBAL_UNIT_ASSIGNED_CONTEXT((#41,#42,#44))REPRESENTATION_CONTEXT(' ',' ')) ;
ENDSEC;
END-ISO-10303-21;
