solid 
 facet normal  9.998609e-01  1.667634e-02  0.000000e+00
   outer loop
     vertex  2.998331e+01  1.000442e+00  5.300000e+01
     vertex  3.000000e+01  0.000000e+00  5.300000e+01
     vertex  3.000000e+01  0.000000e+00  0.000000e+00
   endloop
 endfacet
 facet normal  9.998604e-01  1.670982e-02 -6.320970e-07
   outer loop
     vertex  2.998331e+01  1.000442e+00  5.300000e+01
     vertex  3.000000e+01  0.000000e+00  0.000000e+00
     vertex  2.998325e+01  1.002449e+00  0.000000e+00
   endloop
 endfacet
 facet normal  9.987487e-01  5.001048e-02  6.308280e-07
   outer loop
     vertex  2.993327e+01  1.999770e+00  5.300000e+01
     vertex  2.998331e+01  1.000442e+00  5.300000e+01
     vertex  2.998325e+01  1.002449e+00  0.000000e+00
   endloop
 endfacet
 facet normal  9.987437e-01  5.011080e-02 -1.261656e-06
   outer loop
     vertex  2.993327e+01  1.999770e+00  5.300000e+01
     vertex  2.998325e+01  1.002449e+00  0.000000e+00
     vertex  2.993301e+01  2.003779e+00  0.000000e+00
   endloop
 endfacet
 facet normal  9.965115e-01  8.345581e-02 -1.888677e-06
   outer loop
     vertex  2.984994e+01  2.996874e+00  5.300000e+01
     vertex  2.993301e+01  2.003779e+00  0.000000e+00
     vertex  2.984933e+01  3.002871e+00  0.000000e+00
   endloop
 endfacet
 facet normal  9.965254e-01  8.328899e-02  1.259118e-06
   outer loop
     vertex  2.984994e+01  2.996874e+00  5.300000e+01
     vertex  2.993327e+01  1.999770e+00  5.300000e+01
     vertex  2.993301e+01  2.003779e+00  0.000000e+00
   endloop
 endfacet
 facet normal  9.931663e-01  1.167076e-01 -2.513161e-06
   outer loop
     vertex  2.973339e+01  3.990645e+00  5.300000e+01
     vertex  2.984933e+01  3.002871e+00  0.000000e+00
     vertex  2.973232e+01  3.998609e+00  0.000000e+00
   endloop
 endfacet
 facet normal  9.931936e-01  1.164748e-01  1.884871e-06
   outer loop
     vertex  2.973339e+01  3.990645e+00  5.300000e+01
     vertex  2.984994e+01  2.996874e+00  5.300000e+01
     vertex  2.984933e+01  3.002871e+00  0.000000e+00
   endloop
 endfacet
 facet normal  9.887119e-01  1.498291e-01 -3.135107e-06
   outer loop
     vertex  2.958378e+01  4.979976e+00  5.300000e+01
     vertex  2.973232e+01  3.998609e+00  0.000000e+00
     vertex  2.958211e+01  4.989881e+00  0.000000e+00
   endloop
 endfacet
 facet normal  9.887570e-01  1.495311e-01  2.508085e-06
   outer loop
     vertex  2.958378e+01  4.979976e+00  5.300000e+01
     vertex  2.973339e+01  3.990645e+00  5.300000e+01
     vertex  2.973232e+01  3.998609e+00  0.000000e+00
   endloop
 endfacet
 facet normal  9.831532e-01  1.827832e-01 -3.754514e-06
   outer loop
     vertex  2.940125e+01  5.963767e+00  5.300000e+01
     vertex  2.958211e+01  4.989881e+00  0.000000e+00
     vertex  2.939885e+01  5.975580e+00  0.000000e+00
   endloop
 endfacet
 facet normal  9.832205e-01  1.824211e-01  3.128762e-06
   outer loop
     vertex  2.940125e+01  5.963767e+00  5.300000e+01
     vertex  2.958378e+01  4.979976e+00  5.300000e+01
     vertex  2.958211e+01  4.989881e+00  0.000000e+00
   endloop
 endfacet
 facet normal  9.765902e-01  2.151081e-01  3.746901e-06
   outer loop
     vertex  2.918602e+01  6.940925e+00  5.300000e+01
     vertex  2.940125e+01  5.963767e+00  5.300000e+01
     vertex  2.939885e+01  5.975580e+00  0.000000e+00
   endloop
 endfacet
 facet normal  9.764965e-01  2.155332e-01 -4.371384e-06
   outer loop
     vertex  2.918602e+01  6.940925e+00  5.300000e+01
     vertex  2.939885e+01  5.975580e+00  0.000000e+00
     vertex  2.918276e+01  6.954605e+00  0.000000e+00
   endloop
 endfacet
 facet normal  9.688736e-01  2.475558e-01  4.362502e-06
   outer loop
     vertex  2.893832e+01  7.910361e+00  5.300000e+01
     vertex  2.918602e+01  6.940925e+00  5.300000e+01
     vertex  2.918276e+01  6.954605e+00  0.000000e+00
   endloop
 endfacet
 facet normal  9.687492e-01  2.480424e-01 -4.985717e-06
   outer loop
     vertex  2.893832e+01  7.910361e+00  5.300000e+01
     vertex  2.918276e+01  6.954605e+00  0.000000e+00
     vertex  2.893408e+01  7.925862e+00  0.000000e+00
   endloop
 endfacet
 facet normal  9.600792e-01  2.797282e-01  4.975565e-06
   outer loop
     vertex  2.865843e+01  8.870997e+00  5.300000e+01
     vertex  2.893832e+01  7.910361e+00  5.300000e+01
     vertex  2.893408e+01  7.925862e+00  0.000000e+00
   endloop
 endfacet
 facet normal  9.599199e-01  2.802746e-01 -5.597511e-06
   outer loop
     vertex  2.865843e+01  8.870997e+00  5.300000e+01
     vertex  2.893408e+01  7.925862e+00  0.000000e+00
     vertex  2.865307e+01  8.888267e+00  0.000000e+00
   endloop
 endfacet
 facet normal  9.502168e-01  3.115894e-01  5.586091e-06
   outer loop
     vertex  2.834666e+01  9.821766e+00  5.300000e+01
     vertex  2.865843e+01  8.870997e+00  5.300000e+01
     vertex  2.865307e+01  8.888267e+00  0.000000e+00
   endloop
 endfacet
 facet normal  9.500184e-01  3.121938e-01 -6.206767e-06
   outer loop
     vertex  2.834666e+01  9.821766e+00  5.300000e+01
     vertex  2.865307e+01  8.888267e+00  0.000000e+00
     vertex  2.834007e+01  9.840746e+00  0.000000e+00
   endloop
 endfacet
 facet normal  9.392974e-01  3.431040e-01  6.194078e-06
   outer loop
     vertex  2.800335e+01  1.076161e+01  5.300000e+01
     vertex  2.834666e+01  9.821766e+00  5.300000e+01
     vertex  2.834007e+01  9.840746e+00  0.000000e+00
   endloop
 endfacet
 facet normal  9.390560e-01  3.437643e-01 -6.813486e-06
   outer loop
     vertex  2.800335e+01  1.076161e+01  5.300000e+01
     vertex  2.834007e+01  9.840746e+00  0.000000e+00
     vertex  2.799542e+01  1.078223e+01  0.000000e+00
   endloop
 endfacet
 facet normal  9.273331e-01  3.742369e-01  6.799528e-06
   outer loop
     vertex  2.762890e+01  1.168948e+01  5.300000e+01
     vertex  2.800335e+01  1.076161e+01  5.300000e+01
     vertex  2.799542e+01  1.078223e+01  0.000000e+00
   endloop
 endfacet
 facet normal  9.270447e-01  3.749509e-01 -7.417667e-06
   outer loop
     vertex  2.762890e+01  1.168948e+01  5.300000e+01
     vertex  2.799542e+01  1.078223e+01  0.000000e+00
     vertex  2.761950e+01  1.171168e+01  0.000000e+00
   endloop
 endfacet
 facet normal  9.143373e-01  4.049535e-01  7.402440e-06
   outer loop
     vertex  2.722371e+01  1.260435e+01  5.300000e+01
     vertex  2.762890e+01  1.168948e+01  5.300000e+01
     vertex  2.761950e+01  1.171168e+01  0.000000e+00
   endloop
 endfacet
 facet normal  9.139980e-01  4.057187e-01 -8.019310e-06
   outer loop
     vertex  2.722371e+01  1.260435e+01  5.300000e+01
     vertex  2.761950e+01  1.171168e+01  0.000000e+00
     vertex  2.721273e+01  1.262804e+01  0.000000e+00
   endloop
 endfacet
 facet normal  9.003243e-01  4.352196e-01  8.002814e-06
   outer loop
     vertex  2.678824e+01  1.350520e+01  5.300000e+01
     vertex  2.722371e+01  1.260435e+01  5.300000e+01
     vertex  2.721273e+01  1.262804e+01  0.000000e+00
   endloop
 endfacet
 facet normal  8.999305e-01  4.360333e-01 -8.618415e-06
   outer loop
     vertex  2.678824e+01  1.350520e+01  5.300000e+01
     vertex  2.721273e+01  1.262804e+01  0.000000e+00
     vertex  2.677557e+01  1.353030e+01  0.000000e+00
   endloop
 endfacet
 facet normal  8.848579e-01  4.658610e-01 -9.214982e-06
   outer loop
     vertex  2.632297e+01  1.439102e+01  5.300000e+01
     vertex  2.677557e+01  1.353030e+01  0.000000e+00
     vertex  2.630850e+01  1.441745e+01  0.000000e+00
   endloop
 endfacet
 facet normal  8.853098e-01  4.650016e-01  8.600650e-06
   outer loop
     vertex  2.632297e+01  1.439102e+01  5.300000e+01
     vertex  2.678824e+01  1.350520e+01  5.300000e+01
     vertex  2.677557e+01  1.353030e+01  0.000000e+00
   endloop
 endfacet
 facet normal  8.687971e-01  4.951683e-01 -9.809012e-06
   outer loop
     vertex  2.582841e+01  1.526084e+01  5.300000e+01
     vertex  2.630850e+01  1.441745e+01  0.000000e+00
     vertex  2.581205e+01  1.528850e+01  0.000000e+00
   endloop
 endfacet
 facet normal  8.693105e-01  4.942663e-01  9.195949e-06
   outer loop
     vertex  2.582841e+01  1.526084e+01  5.300000e+01
     vertex  2.632297e+01  1.439102e+01  5.300000e+01
     vertex  2.630850e+01  1.441745e+01  0.000000e+00
   endloop
 endfacet
 facet normal  8.517658e-01  5.239226e-01 -1.040050e-05
   outer loop
     vertex  2.530513e+01  1.611367e+01  5.300000e+01
     vertex  2.581205e+01  1.528850e+01  0.000000e+00
     vertex  2.528677e+01  1.614247e+01  0.000000e+00
   endloop
 endfacet
 facet normal  8.523442e-01  5.229812e-01  9.788709e-06
   outer loop
     vertex  2.530513e+01  1.611367e+01  5.300000e+01
     vertex  2.582841e+01  1.526084e+01  5.300000e+01
     vertex  2.581205e+01  1.528850e+01  0.000000e+00
   endloop
 endfacet
 facet normal  8.337833e-01  5.520918e-01 -1.098946e-05
   outer loop
     vertex  2.475369e+01  1.694859e+01  5.300000e+01
     vertex  2.528677e+01  1.614247e+01  0.000000e+00
     vertex  2.473325e+01  1.697841e+01  0.000000e+00
   endloop
 endfacet
 facet normal  8.344297e-01  5.511144e-01  1.037893e-05
   outer loop
     vertex  2.475369e+01  1.694859e+01  5.300000e+01
     vertex  2.530513e+01  1.611367e+01  5.300000e+01
     vertex  2.528677e+01  1.614247e+01  0.000000e+00
   endloop
 endfacet
 facet normal  8.148696e-01  5.796443e-01 -1.157587e-05
   outer loop
     vertex  2.417472e+01  1.776465e+01  5.300000e+01
     vertex  2.473325e+01  1.697841e+01  0.000000e+00
     vertex  2.415210e+01  1.779539e+01  0.000000e+00
   endloop
 endfacet
 facet normal  8.155870e-01  5.786344e-01  1.096662e-05
   outer loop
     vertex  2.417472e+01  1.776465e+01  5.300000e+01
     vertex  2.475369e+01  1.694859e+01  5.300000e+01
     vertex  2.473325e+01  1.697841e+01  0.000000e+00
   endloop
 endfacet
 facet normal  7.950457e-01  6.065495e-01 -1.215975e-05
   outer loop
     vertex  2.356886e+01  1.856095e+01  5.300000e+01
     vertex  2.415210e+01  1.779539e+01  0.000000e+00
     vertex  2.354398e+01  1.859250e+01  0.000000e+00
   endloop
 endfacet
 facet normal  7.958371e-01  6.055108e-01  1.155176e-05
   outer loop
     vertex  2.356886e+01  1.856095e+01  5.300000e+01
     vertex  2.417472e+01  1.776465e+01  5.300000e+01
     vertex  2.415210e+01  1.779539e+01  0.000000e+00
   endloop
 endfacet
 facet normal  7.743339e-01  6.327772e-01 -1.274109e-05
   outer loop
     vertex  2.293678e+01  1.933660e+01  5.300000e+01
     vertex  2.354398e+01  1.859250e+01  0.000000e+00
     vertex  2.290957e+01  1.936884e+01  0.000000e+00
   endloop
 endfacet
 facet normal  7.752018e-01  6.317137e-01  1.213437e-05
   outer loop
     vertex  2.293678e+01  1.933660e+01  5.300000e+01
     vertex  2.356886e+01  1.856095e+01  5.300000e+01
     vertex  2.354398e+01  1.859250e+01  0.000000e+00
   endloop
 endfacet
 facet normal  7.527573e-01  6.582982e-01 -1.331989e-05
   outer loop
     vertex  2.227918e+01  2.009074e+01  5.300000e+01
     vertex  2.290957e+01  1.936884e+01  0.000000e+00
     vertex  2.224956e+01  2.012354e+01  0.000000e+00
   endloop
 endfacet
 facet normal  7.537042e-01  6.572138e-01  1.271444e-05
   outer loop
     vertex  2.227918e+01  2.009074e+01  5.300000e+01
     vertex  2.293678e+01  1.933660e+01  5.300000e+01
     vertex  2.290957e+01  1.936884e+01  0.000000e+00
   endloop
 endfacet
 facet normal  7.303399e-01  6.830840e-01 -1.389616e-05
   outer loop
     vertex  2.159681e+01  2.082254e+01  5.300000e+01
     vertex  2.224956e+01  2.012354e+01  0.000000e+00
     vertex  2.156471e+01  2.085577e+01  0.000000e+00
   endloop
 endfacet
 facet normal  7.313682e-01  6.819828e-01  1.329198e-05
   outer loop
     vertex  2.159681e+01  2.082254e+01  5.300000e+01
     vertex  2.227918e+01  2.009074e+01  5.300000e+01
     vertex  2.224956e+01  2.012354e+01  0.000000e+00
   endloop
 endfacet
 facet normal  7.071068e-01  7.071068e-01 -1.446988e-05
   outer loop
     vertex  2.089040e+01  2.153116e+01  5.300000e+01
     vertex  2.156471e+01  2.085577e+01  0.000000e+00
     vertex  2.085577e+01  2.156471e+01  0.000000e+00
   endloop
 endfacet
 facet normal  7.082186e-01  7.059932e-01  1.386697e-05
   outer loop
     vertex  2.089040e+01  2.153116e+01  5.300000e+01
     vertex  2.159681e+01  2.082254e+01  5.300000e+01
     vertex  2.156471e+01  2.085577e+01  0.000000e+00
   endloop
 endfacet
 facet normal  6.830840e-01  7.303399e-01 -1.504107e-05
   outer loop
     vertex  2.016076e+01  2.221584e+01  5.300000e+01
     vertex  2.085577e+01  2.156471e+01  0.000000e+00
     vertex  2.012354e+01  2.224956e+01  0.000000e+00
   endloop
 endfacet
 facet normal  6.842812e-01  7.292182e-01  1.443943e-05
   outer loop
     vertex  2.016076e+01  2.221584e+01  5.300000e+01
     vertex  2.089040e+01  2.153116e+01  5.300000e+01
     vertex  2.085577e+01  2.156471e+01  0.000000e+00
   endloop
 endfacet
 facet normal  6.582982e-01  7.527573e-01 -1.560972e-05
   outer loop
     vertex  1.940869e+01  2.287581e+01  5.300000e+01
     vertex  2.012354e+01  2.224956e+01  0.000000e+00
     vertex  1.936884e+01  2.290957e+01  0.000000e+00
   endloop
 endfacet
 facet normal  6.595826e-01  7.516321e-01  1.500935e-05
   outer loop
     vertex  1.940869e+01  2.287581e+01  5.300000e+01
     vertex  2.016076e+01  2.221584e+01  5.300000e+01
     vertex  2.012354e+01  2.224956e+01  0.000000e+00
   endloop
 endfacet
 facet normal  6.327772e-01  7.743339e-01 -1.617584e-05
   outer loop
     vertex  1.863503e+01  2.351033e+01  5.300000e+01
     vertex  1.936884e+01  2.290957e+01  0.000000e+00
     vertex  1.859250e+01  2.354398e+01  0.000000e+00
   endloop
 endfacet
 facet normal  6.341503e-01  7.732098e-01  1.557673e-05
   outer loop
     vertex  1.863503e+01  2.351033e+01  5.300000e+01
     vertex  1.940869e+01  2.287581e+01  5.300000e+01
     vertex  1.936884e+01  2.290957e+01  0.000000e+00
   endloop
 endfacet
 facet normal  6.065495e-01  7.950457e-01 -1.673941e-05
   outer loop
     vertex  1.784065e+01  2.411869e+01  5.300000e+01
     vertex  1.859250e+01  2.354398e+01  0.000000e+00
     vertex  1.779539e+01  2.415210e+01  0.000000e+00
   endloop
 endfacet
 facet normal  6.080125e-01  7.939274e-01  1.614158e-05
   outer loop
     vertex  1.784065e+01  2.411869e+01  5.300000e+01
     vertex  1.863503e+01  2.351033e+01  5.300000e+01
     vertex  1.859250e+01  2.354398e+01  0.000000e+00
   endloop
 endfacet
 facet normal  5.796443e-01  8.148696e-01 -1.730045e-05
   outer loop
     vertex  1.702641e+01  2.470023e+01  5.300000e+01
     vertex  1.779539e+01  2.415210e+01  0.000000e+00
     vertex  1.697841e+01  2.473325e+01  0.000000e+00
   endloop
 endfacet
 facet normal  5.811984e-01  8.137619e-01  1.670388e-05
   outer loop
     vertex  1.702641e+01  2.470023e+01  5.300000e+01
     vertex  1.784065e+01  2.411869e+01  5.300000e+01
     vertex  1.779539e+01  2.415210e+01  0.000000e+00
   endloop
 endfacet
 facet normal  5.520918e-01  8.337833e-01 -1.785895e-05
   outer loop
     vertex  1.619324e+01  2.525429e+01  5.300000e+01
     vertex  1.697841e+01  2.473325e+01  0.000000e+00
     vertex  1.614247e+01  2.528677e+01  0.000000e+00
   endloop
 endfacet
 facet normal  5.537378e-01  8.326911e-01  1.726365e-05
   outer loop
     vertex  1.619324e+01  2.525429e+01  5.300000e+01
     vertex  1.702641e+01  2.470023e+01  5.300000e+01
     vertex  1.697841e+01  2.473325e+01  0.000000e+00
   endloop
 endfacet
 facet normal  5.239226e-01  8.517658e-01 -1.841491e-05
   outer loop
     vertex  1.534205e+01  2.578025e+01  5.300000e+01
     vertex  1.614247e+01  2.528677e+01  0.000000e+00
     vertex  1.528850e+01  2.581205e+01  0.000000e+00
   endloop
 endfacet
 facet normal  5.256612e-01  8.506940e-01  1.782088e-05
   outer loop
     vertex  1.534205e+01  2.578025e+01  5.300000e+01
     vertex  1.619324e+01  2.525429e+01  5.300000e+01
     vertex  1.614247e+01  2.528677e+01  0.000000e+00
   endloop
 endfacet
 facet normal  4.969998e-01  8.677506e-01  1.837557e-05
   outer loop
     vertex  1.447379e+01  2.627754e+01  5.300000e+01
     vertex  1.534205e+01  2.578025e+01  5.300000e+01
     vertex  1.528850e+01  2.581205e+01  0.000000e+00
   endloop
 endfacet
 facet normal  4.951683e-01  8.687971e-01 -1.896833e-05
   outer loop
     vertex  1.447379e+01  2.627754e+01  5.300000e+01
     vertex  1.528850e+01  2.581205e+01  0.000000e+00
     vertex  1.441745e+01  2.630850e+01  0.000000e+00
   endloop
 endfacet
 facet normal  4.677856e-01  8.838420e-01  1.892773e-05
   outer loop
     vertex  1.358944e+01  2.674560e+01  5.300000e+01
     vertex  1.447379e+01  2.627754e+01  5.300000e+01
     vertex  1.441745e+01  2.630850e+01  0.000000e+00
   endloop
 endfacet
 facet normal  4.658610e-01  8.848579e-01 -1.951922e-05
   outer loop
     vertex  1.358944e+01  2.674560e+01  5.300000e+01
     vertex  1.441745e+01  2.630850e+01  0.000000e+00
     vertex  1.353030e+01  2.677557e+01  0.000000e+00
   endloop
 endfacet
 facet normal  4.380510e-01  8.989501e-01  1.947734e-05
   outer loop
     vertex  1.268997e+01  2.718391e+01  5.300000e+01
     vertex  1.358944e+01  2.674560e+01  5.300000e+01
     vertex  1.353030e+01  2.677557e+01  0.000000e+00
   endloop
 endfacet
 facet normal  4.360333e-01  8.999305e-01 -2.006757e-05
   outer loop
     vertex  1.268997e+01  2.718391e+01  5.300000e+01
     vertex  1.353030e+01  2.677557e+01  0.000000e+00
     vertex  1.262804e+01  2.721273e+01  0.000000e+00
   endloop
 endfacet
 facet normal  4.078291e-01  9.130583e-01  2.002442e-05
   outer loop
     vertex  1.177638e+01  2.759197e+01  5.300000e+01
     vertex  1.268997e+01  2.718391e+01  5.300000e+01
     vertex  1.262804e+01  2.721273e+01  0.000000e+00
   endloop
 endfacet
 facet normal  4.057187e-01  9.139980e-01 -2.061337e-05
   outer loop
     vertex  1.177638e+01  2.759197e+01  5.300000e+01
     vertex  1.262804e+01  2.721273e+01  0.000000e+00
     vertex  1.171168e+01  2.761950e+01  0.000000e+00
   endloop
 endfacet
 facet normal  3.771536e-01  9.261507e-01  2.056896e-05
   outer loop
     vertex  1.084969e+01  2.796934e+01  5.300000e+01
     vertex  1.177638e+01  2.759197e+01  5.300000e+01
     vertex  1.171168e+01  2.761950e+01  0.000000e+00
   endloop
 endfacet
 facet normal  3.749509e-01  9.270447e-01 -2.115665e-05
   outer loop
     vertex  1.084969e+01  2.796934e+01  5.300000e+01
     vertex  1.171168e+01  2.761950e+01  0.000000e+00
     vertex  1.078223e+01  2.799542e+01  0.000000e+00
   endloop
 endfacet
 facet normal  3.437643e-01  9.390560e-01 -2.169738e-05
   outer loop
     vertex  9.910932e+00  2.831560e+01  5.300000e+01
     vertex  1.078223e+01  2.799542e+01  0.000000e+00
     vertex  9.840746e+00  2.834007e+01  0.000000e+00
   endloop
 endfacet
 facet normal  3.460585e-01  9.382129e-01  2.111097e-05
   outer loop
     vertex  9.910932e+00  2.831560e+01  5.300000e+01
     vertex  1.084969e+01  2.796934e+01  5.300000e+01
     vertex  1.078223e+01  2.799542e+01  0.000000e+00
   endloop
 endfacet
 facet normal  3.121938e-01  9.500184e-01 -2.223558e-05
   outer loop
     vertex  8.961149e+00  2.863037e+01  5.300000e+01
     vertex  9.840746e+00  2.834007e+01  0.000000e+00
     vertex  8.888267e+00  2.865307e+01  0.000000e+00
   endloop
 endfacet
 facet normal  3.145784e-01  9.492315e-01  2.165043e-05
   outer loop
     vertex  8.961149e+00  2.863037e+01  5.300000e+01
     vertex  9.910932e+00  2.831560e+01  5.300000e+01
     vertex  9.840746e+00  2.834007e+01  0.000000e+00
   endloop
 endfacet
 facet normal  2.802746e-01  9.599199e-01 -2.277123e-05
   outer loop
     vertex  8.001398e+00  2.891328e+01  5.300000e+01
     vertex  8.888267e+00  2.865307e+01  0.000000e+00
     vertex  7.925862e+00  2.893408e+01  0.000000e+00
   endloop
 endfacet
 facet normal  2.827484e-01  9.591941e-01  2.218736e-05
   outer loop
     vertex  8.001398e+00  2.891328e+01  5.300000e+01
     vertex  8.961149e+00  2.863037e+01  5.300000e+01
     vertex  8.888267e+00  2.865307e+01  0.000000e+00
   endloop
 endfacet
 facet normal  2.480424e-01  9.687492e-01 -2.330435e-05
   outer loop
     vertex  7.032747e+00  2.916403e+01  5.300000e+01
     vertex  7.925862e+00  2.893408e+01  0.000000e+00
     vertex  6.954605e+00  2.918276e+01  0.000000e+00
   endloop
 endfacet
 facet normal  2.506039e-01  9.680897e-01  2.272175e-05
   outer loop
     vertex  7.032747e+00  2.916403e+01  5.300000e+01
     vertex  8.001398e+00  2.891328e+01  5.300000e+01
     vertex  7.925862e+00  2.893408e+01  0.000000e+00
   endloop
 endfacet
 facet normal  2.155332e-01  9.764965e-01 -2.383494e-05
   outer loop
     vertex  6.056271e+00  2.938233e+01  5.300000e+01
     vertex  6.954605e+00  2.918276e+01  0.000000e+00
     vertex  5.975580e+00  2.939885e+01  0.000000e+00
   endloop
 endfacet
 facet normal  2.181806e-01  9.759084e-01  2.325360e-05
   outer loop
     vertex  6.056271e+00  2.938233e+01  5.300000e+01
     vertex  7.032747e+00  2.916403e+01  5.300000e+01
     vertex  6.954605e+00  2.918276e+01  0.000000e+00
   endloop
 endfacet
 facet normal  1.827832e-01  9.831532e-01 -2.436298e-05
   outer loop
     vertex  5.073059e+00  2.956796e+01  5.300000e+01
     vertex  5.975580e+00  2.939885e+01  0.000000e+00
     vertex  4.989881e+00  2.958211e+01  0.000000e+00
   endloop
 endfacet
 facet normal  1.855146e-01  9.826415e-01  2.378291e-05
   outer loop
     vertex  5.073059e+00  2.956796e+01  5.300000e+01
     vertex  6.056271e+00  2.938233e+01  5.300000e+01
     vertex  5.975580e+00  2.939885e+01  0.000000e+00
   endloop
 endfacet
 facet normal  1.498291e-01  9.887119e-01 -2.488849e-05
   outer loop
     vertex  4.084204e+00  2.972069e+01  5.300000e+01
     vertex  4.989881e+00  2.958211e+01  0.000000e+00
     vertex  3.998609e+00  2.973232e+01  0.000000e+00
   endloop
 endfacet
 facet normal  1.526423e-01  9.882815e-01  2.430969e-05
   outer loop
     vertex  4.084204e+00  2.972069e+01  5.300000e+01
     vertex  5.073059e+00  2.956796e+01  5.300000e+01
     vertex  4.989881e+00  2.958211e+01  0.000000e+00
   endloop
 endfacet
 facet normal  1.167076e-01  9.931663e-01 -2.541146e-05
   outer loop
     vertex  3.090805e+00  2.984036e+01  5.300000e+01
     vertex  3.998609e+00  2.973232e+01  0.000000e+00
     vertex  3.002871e+00  2.984933e+01  0.000000e+00
   endloop
 endfacet
 facet normal  1.196001e-01  9.928221e-01  2.483392e-05
   outer loop
     vertex  3.090805e+00  2.984036e+01  5.300000e+01
     vertex  4.084204e+00  2.972069e+01  5.300000e+01
     vertex  3.998609e+00  2.973232e+01  0.000000e+00
   endloop
 endfacet
 facet normal  8.345581e-02  9.965115e-01 -2.593189e-05
   outer loop
     vertex  2.093968e+00  2.992683e+01  5.300000e+01
     vertex  3.002871e+00  2.984933e+01  0.000000e+00
     vertex  2.003779e+00  2.993301e+01  0.000000e+00
   endloop
 endfacet
 facet normal  8.642492e-02  9.962584e-01  2.535562e-05
   outer loop
     vertex  2.093968e+00  2.992683e+01  5.300000e+01
     vertex  3.090805e+00  2.984036e+01  5.300000e+01
     vertex  3.002871e+00  2.984933e+01  0.000000e+00
   endloop
 endfacet
 facet normal  5.011080e-02  9.987437e-01 -2.644978e-05
   outer loop
     vertex  1.094802e+00  2.998002e+01  5.300000e+01
     vertex  2.003779e+00  2.993301e+01  0.000000e+00
     vertex  1.002449e+00  2.998325e+01  0.000000e+00
   endloop
 endfacet
 facet normal  5.315357e-02  9.985863e-01  2.587478e-05
   outer loop
     vertex  1.094802e+00  2.998002e+01  5.300000e+01
     vertex  2.093968e+00  2.992683e+01  5.300000e+01
     vertex  2.003779e+00  2.993301e+01  0.000000e+00
   endloop
 endfacet
 facet normal  1.670982e-02  9.998604e-01 -2.696513e-05
   outer loop
     vertex  9.441823e-02  2.999985e+01  5.300000e+01
     vertex  1.002449e+00  2.998325e+01  0.000000e+00
     vertex -1.814704e-14  3.000000e+01  0.000000e+00
   endloop
 endfacet
 facet normal  1.982310e-02  9.998035e-01  2.639141e-05
   outer loop
     vertex  9.441823e-02  2.999985e+01  5.300000e+01
     vertex  1.094802e+00  2.998002e+01  5.300000e+01
     vertex  1.002449e+00  2.998325e+01  0.000000e+00
   endloop
 endfacet
 facet normal -1.032772e-02  9.999467e-01  2.120185e-05
   outer loop
     vertex  9.441823e-02  2.999985e+01  5.300000e+01
     vertex -1.814704e-14  3.000000e+01  0.000000e+00
     vertex -6.208740e-01  2.999357e+01  6.208740e-01
   endloop
 endfacet
 facet normal -1.352943e-02  9.999085e-01  6.492903e-05
   outer loop
     vertex -9.060709e-01  2.998631e+01  5.300000e+01
     vertex  9.441823e-02  2.999985e+01  5.300000e+01
     vertex -6.208740e-01  2.999357e+01  6.208740e-01
   endloop
 endfacet
 facet normal -3.107751e-02  9.995170e-01 -3.067205e-05
   outer loop
     vertex -9.060709e-01  2.998631e+01  5.300000e+01
     vertex -6.208740e-01  2.999357e+01  6.208740e-01
     vertex -1.241684e+00  2.997429e+01  1.241684e+00
   endloop
 endfacet
 facet normal -5.818488e-02  9.983058e-01 -7.371584e-05
   outer loop
     vertex -1.905552e+00  2.993942e+01  5.300000e+01
     vertex -1.241684e+00  2.997429e+01  1.241684e+00
     vertex -2.244168e+00  2.991594e+01  2.244168e+00
   endloop
 endfacet
 facet normal -4.686690e-02  9.989011e-01  7.185312e-05
   outer loop
     vertex -1.905552e+00  2.993942e+01  5.300000e+01
     vertex -9.060709e-01  2.998631e+01  5.300000e+01
     vertex -1.241684e+00  2.997429e+01  1.241684e+00
   endloop
 endfacet
 facet normal -9.154797e-02  9.958007e-01 -7.545570e-05
   outer loop
     vertex -2.902913e+00  2.985922e+01  5.300000e+01
     vertex -2.244168e+00  2.991594e+01  2.244168e+00
     vertex -3.243017e+00  2.982418e+01  3.243017e+00
   endloop
 endfacet
 facet normal -8.015224e-02  9.967826e-01  7.354355e-05
   outer loop
     vertex -2.902913e+00  2.985922e+01  5.300000e+01
     vertex -1.905552e+00  2.993942e+01  5.300000e+01
     vertex -2.244168e+00  2.991594e+01  2.244168e+00
   endloop
 endfacet
 facet normal -1.247625e-01  9.921866e-01 -7.705048e-05
   outer loop
     vertex -3.897046e+00  2.974581e+01  5.300000e+01
     vertex -3.243017e+00  2.982418e+01  3.243017e+00
     vertex -4.236836e+00  2.969929e+01  4.236836e+00
   endloop
 endfacet
 facet normal -1.133484e-01  9.935553e-01  7.513764e-05
   outer loop
     vertex -3.897046e+00  2.974581e+01  5.300000e+01
     vertex -2.902913e+00  2.985922e+01  5.300000e+01
     vertex -3.243017e+00  2.982418e+01  3.243017e+00
   endloop
 endfacet
 facet normal -1.577831e-01  9.874738e-01 -7.839567e-05
   outer loop
     vertex -4.886843e+00  2.959930e+01  5.300000e+01
     vertex -4.236836e+00  2.969929e+01  4.236836e+00
     vertex -5.224232e+00  2.954160e+01  5.224232e+00
   endloop
 endfacet
 facet normal -1.464185e-01  9.892227e-01  7.667926e-05
   outer loop
     vertex -4.886843e+00  2.959930e+01  5.300000e+01
     vertex -3.897046e+00  2.974581e+01  5.300000e+01
     vertex -4.236836e+00  2.969929e+01  4.236836e+00
   endloop
 endfacet
 facet normal -1.905662e-01  9.816744e-01 -7.941972e-05
   outer loop
     vertex -5.871204e+00  2.941987e+01  5.300000e+01
     vertex -5.224232e+00  2.954160e+01  5.224232e+00
     vertex -6.203839e+00  2.935152e+01  6.203839e+00
   endloop
 endfacet
 facet normal -1.793257e-01  9.837898e-01  7.818633e-05
   outer loop
     vertex -5.871204e+00  2.941987e+01  5.300000e+01
     vertex -4.886843e+00  2.959930e+01  5.300000e+01
     vertex -5.224232e+00  2.954160e+01  5.224232e+00
   endloop
 endfacet
 facet normal -2.230694e-01  9.748026e-01 -8.009741e-05
   outer loop
     vertex -6.849034e+00  2.920772e+01  5.300000e+01
     vertex -6.203839e+00  2.935152e+01  6.203839e+00
     vertex -7.174338e+00  2.912951e+01  7.174338e+00
   endloop
 endfacet
 facet normal -2.120334e-01  9.772624e-01  7.961817e-05
   outer loop
     vertex -6.849034e+00  2.920772e+01  5.300000e+01
     vertex -5.871204e+00  2.941987e+01  5.300000e+01
     vertex -6.203839e+00  2.935152e+01  6.203839e+00
   endloop
 endfacet
 facet normal -2.552514e-01  9.668747e-01 -8.043532e-05
   outer loop
     vertex -7.819245e+00  2.896307e+01  5.300000e+01
     vertex -7.174338e+00  2.912951e+01  7.174338e+00
     vertex -8.134482e+00  2.887612e+01  8.134482e+00
   endloop
 endfacet
 facet normal -2.445053e-01  9.696480e-01  8.086706e-05
   outer loop
     vertex -7.819245e+00  2.896307e+01  5.300000e+01
     vertex -6.849034e+00  2.920772e+01  5.300000e+01
     vertex -7.174338e+00  2.912951e+01  7.174338e+00
   endloop
 endfacet
 facet normal -2.870707e-01  9.579094e-01 -8.042608e-05
   outer loop
     vertex -8.780758e+00  2.868620e+01  5.300000e+01
     vertex -8.134482e+00  2.887612e+01  8.134482e+00
     vertex -9.083114e+00  2.859191e+01  9.083114e+00
   endloop
 endfacet
 facet normal -2.767052e-01  9.609549e-01  8.177818e-05
   outer loop
     vertex -8.780758e+00  2.868620e+01  5.300000e+01
     vertex -7.819245e+00  2.896307e+01  5.300000e+01
     vertex -8.134482e+00  2.887612e+01  8.134482e+00
   endloop
 endfacet
 facet normal -3.085973e-01  9.511928e-01  8.220044e-05
   outer loop
     vertex -9.732503e+00  2.837743e+01  5.300000e+01
     vertex -8.780758e+00  2.868620e+01  5.300000e+01
     vertex -9.083114e+00  2.859191e+01  9.083114e+00
   endloop
 endfacet
 facet normal -3.184877e-01  9.479270e-01 -7.999723e-05
   outer loop
     vertex -9.732503e+00  2.837743e+01  5.300000e+01
     vertex -9.083114e+00  2.859191e+01  9.083114e+00
     vertex -1.001930e+01  2.827744e+01  1.001930e+01
   endloop
 endfacet
 facet normal -3.401460e-01  9.403726e-01  8.209565e-05
   outer loop
     vertex -1.067342e+01  2.803708e+01  5.300000e+01
     vertex -9.732503e+00  2.837743e+01  5.300000e+01
     vertex -1.001930e+01  2.827744e+01  1.001930e+01
   endloop
 endfacet
 facet normal -3.494622e-01  9.369505e-01 -7.882462e-05
   outer loop
     vertex -1.067342e+01  2.803708e+01  5.300000e+01
     vertex -1.001930e+01  2.827744e+01  1.001930e+01
     vertex -1.094185e+01  2.793343e+01  1.094184e+01
   endloop
 endfacet
 facet normal -3.713164e-01  9.285064e-01  8.146480e-05
   outer loop
     vertex -1.160247e+01  2.766555e+01  5.300000e+01
     vertex -1.067342e+01  2.803708e+01  5.300000e+01
     vertex -1.094185e+01  2.793343e+01  1.094184e+01
   endloop
 endfacet
 facet normal -3.799629e-01  9.250017e-01 -7.666984e-05
   outer loop
     vertex -1.160247e+01  2.766555e+01  5.300000e+01
     vertex -1.094185e+01  2.793343e+01  1.094184e+01
     vertex -1.184947e+01  2.756068e+01  1.184946e+01
   endloop
 endfacet
 facet normal -4.020738e-01  9.156073e-01  7.999383e-05
   outer loop
     vertex -1.251861e+01  2.726324e+01  5.300000e+01
     vertex -1.160247e+01  2.766555e+01  5.300000e+01
     vertex -1.184947e+01  2.756068e+01  1.184946e+01
   endloop
 endfacet
 facet normal -4.099546e-01  9.121059e-01 -7.345993e-05
   outer loop
     vertex -1.251861e+01  2.726324e+01  5.300000e+01
     vertex -1.184947e+01  2.756068e+01  1.184946e+01
     vertex -1.274111e+01  2.715999e+01  1.274109e+01
   endloop
 endfacet
 facet normal -4.323839e-01  9.016896e-01  7.721988e-05
   outer loop
     vertex -1.342082e+01  2.683061e+01  5.300000e+01
     vertex -1.251861e+01  2.726324e+01  5.300000e+01
     vertex -1.274111e+01  2.715999e+01  1.274109e+01
   endloop
 endfacet
 facet normal -4.393989e-01  8.982921e-01 -6.901461e-05
   outer loop
     vertex -1.342082e+01  2.683061e+01  5.300000e+01
     vertex -1.274111e+01  2.715999e+01  1.274109e+01
     vertex -1.361580e+01  2.673221e+01  1.361577e+01
   endloop
 endfacet
 facet normal -4.622130e-01  8.867689e-01  7.272323e-05
   outer loop
     vertex -1.430810e+01  2.636813e+01  5.300000e+01
     vertex -1.342082e+01  2.683061e+01  5.300000e+01
     vertex -1.361580e+01  2.673221e+01  1.361577e+01
   endloop
 endfacet
 facet normal -4.682580e-01  8.835918e-01 -6.290864e-05
   outer loop
     vertex -1.430810e+01  2.636813e+01  5.300000e+01
     vertex -1.361580e+01  2.673221e+01  1.361577e+01
     vertex -1.447260e+01  2.627821e+01  1.447257e+01
   endloop
 endfacet
 facet normal -4.915279e-01  8.708618e-01  6.615826e-05
   outer loop
     vertex -1.517947e+01  2.587631e+01  5.300000e+01
     vertex -1.430810e+01  2.636813e+01  5.300000e+01
     vertex -1.447260e+01  2.627821e+01  1.447257e+01
   endloop
 endfacet
 facet normal -4.964978e-01  8.680380e-01 -5.448120e-05
   outer loop
     vertex -1.517947e+01  2.587631e+01  5.300000e+01
     vertex -1.447260e+01  2.627821e+01  1.447257e+01
     vertex -1.531059e+01  2.579895e+01  1.531056e+01
   endloop
 endfacet
 facet normal -5.202961e-01  8.539860e-01  5.715155e-05
   outer loop
     vertex -1.603395e+01  2.535572e+01  5.300000e+01
     vertex -1.517947e+01  2.587631e+01  5.300000e+01
     vertex -1.531059e+01  2.579895e+01  1.531056e+01
   endloop
 endfacet
 facet normal -5.240894e-01  8.516633e-01 -4.296784e-05
   outer loop
     vertex -1.603395e+01  2.535572e+01  5.300000e+01
     vertex -1.531059e+01  2.579895e+01  1.531056e+01
     vertex -1.612880e+01  2.529549e+01  1.612879e+01
   endloop
 endfacet
 facet normal -5.484854e-01  8.361601e-01  4.510945e-05
   outer loop
     vertex -1.687060e+01  2.480691e+01  5.300000e+01
     vertex -1.603395e+01  2.535572e+01  5.300000e+01
     vertex -1.612880e+01  2.529549e+01  1.612879e+01
   endloop
 endfacet
 facet normal -5.510118e-01  8.344975e-01 -2.774921e-05
   outer loop
     vertex -1.687060e+01  2.480691e+01  5.300000e+01
     vertex -1.612880e+01  2.529549e+01  1.612879e+01
     vertex -1.692670e+01  2.476867e+01  1.692671e+01
   endloop
 endfacet
 facet normal -5.760647e-01  8.174041e-01  2.933406e-05
   outer loop
     vertex -1.768848e+01  2.423051e+01  5.300000e+01
     vertex -1.687060e+01  2.480691e+01  5.300000e+01
     vertex -1.692670e+01  2.476867e+01  1.692671e+01
   endloop
 endfacet
 facet normal -5.772382e-01  8.165758e-01 -7.803677e-06
   outer loop
     vertex -1.768848e+01  2.423051e+01  5.300000e+01
     vertex -1.692670e+01  2.476867e+01  1.692671e+01
     vertex -1.770347e+01  2.421958e+01  1.770349e+01
   endloop
 endfacet
 facet normal -6.027585e-01  7.979237e-01  8.817603e-06
   outer loop
     vertex -1.845853e+01  2.364919e+01  1.845855e+01
     vertex -1.768848e+01  2.423051e+01  5.300000e+01
     vertex -1.770347e+01  2.421958e+01  1.770349e+01
   endloop
 endfacet
 facet normal -6.030031e-01  7.977388e-01  1.738262e-05
   outer loop
     vertex -1.848668e+01  2.362716e+01  5.300000e+01
     vertex -1.768848e+01  2.423051e+01  5.300000e+01
     vertex -1.845853e+01  2.364919e+01  1.845855e+01
   endloop
 endfacet
 facet normal -6.275793e-01  7.785526e-01 -1.488282e-05
   outer loop
     vertex -1.848668e+01  2.362716e+01  5.300000e+01
     vertex -1.845853e+01  2.364919e+01  1.845855e+01
     vertex -1.919142e+01  2.305843e+01  1.919144e+01
   endloop
 endfacet
 facet normal -6.292708e-01  7.771862e-01  4.336168e-05
   outer loop
     vertex -1.926432e+01  2.299752e+01  5.300000e+01
     vertex -1.848668e+01  2.362716e+01  5.300000e+01
     vertex -1.919142e+01  2.305843e+01  1.919144e+01
   endloop
 endfacet
 facet normal -6.516563e-01  7.585144e-01 -3.854105e-05
   outer loop
     vertex -1.926432e+01  2.299752e+01  5.300000e+01
     vertex -1.919142e+01  2.305843e+01  1.919144e+01
     vertex -1.990177e+01  2.244819e+01  1.990178e+01
   endloop
 endfacet
 facet normal -6.749717e-01  7.378436e-01 -6.127360e-05
   outer loop
     vertex -2.002052e+01  2.234231e+01  5.300000e+01
     vertex -1.990177e+01  2.244819e+01  1.990178e+01
     vertex -2.058921e+01  2.181939e+01  2.058922e+01
   endloop
 endfacet
 facet normal -6.548384e-01  7.557689e-01  6.831146e-05
   outer loop
     vertex -2.002052e+01  2.234231e+01  5.300000e+01
     vertex -1.926432e+01  2.299752e+01  5.300000e+01
     vertex -1.990177e+01  2.244819e+01  1.990178e+01
   endloop
 endfacet
 facet normal -6.975104e-01  7.165747e-01 -8.184560e-05
   outer loop
     vertex -2.075446e+01  2.166223e+01  5.300000e+01
     vertex -2.058921e+01  2.181939e+01  2.058922e+01
     vertex -2.125339e+01  2.117295e+01  2.125339e+01
   endloop
 endfacet
 facet normal -6.796776e-01  7.335110e-01  9.119835e-05
   outer loop
     vertex -2.075446e+01  2.166223e+01  5.300000e+01
     vertex -2.002052e+01  2.234231e+01  5.300000e+01
     vertex -2.058921e+01  2.181939e+01  2.058922e+01
   endloop
 endfacet
 facet normal -7.192597e-01  6.947413e-01 -9.872925e-05
   outer loop
     vertex -2.146531e+01  2.095806e+01  5.300000e+01
     vertex -2.125339e+01  2.117295e+01  2.125339e+01
     vertex -2.189394e+01  2.050989e+01  2.189394e+01
   endloop
 endfacet
 facet normal -7.037607e-01  7.104371e-01  1.109774e-04
   outer loop
     vertex -2.146531e+01  2.095806e+01  5.300000e+01
     vertex -2.075446e+01  2.166223e+01  5.300000e+01
     vertex -2.125339e+01  2.117295e+01  2.125339e+01
   endloop
 endfacet
 facet normal -7.402112e-01  6.723744e-01 -1.102513e-04
   outer loop
     vertex -2.215228e+01  2.023058e+01  5.300000e+01
     vertex -2.189394e+01  2.050989e+01  2.189394e+01
     vertex -2.251051e+01  1.983121e+01  2.251051e+01
   endloop
 endfacet
 facet normal -7.270610e-01  6.865729e-01  1.264580e-04
   outer loop
     vertex -2.215228e+01  2.023058e+01  5.300000e+01
     vertex -2.146531e+01  2.095806e+01  5.300000e+01
     vertex -2.189394e+01  2.050989e+01  2.189394e+01
   endloop
 endfacet
 facet normal -7.603571e-01  6.495052e-01 -1.147071e-04
   outer loop
     vertex -2.281461e+01  1.948059e+01  5.300000e+01
     vertex -2.251051e+01  1.983121e+01  2.251051e+01
     vertex -2.310283e+01  1.913790e+01  2.310283e+01
   endloop
 endfacet
 facet normal -7.495524e-01  6.619449e-01  1.361118e-04
   outer loop
     vertex -2.281461e+01  1.948059e+01  5.300000e+01
     vertex -2.215228e+01  2.023058e+01  5.300000e+01
     vertex -2.251051e+01  1.983121e+01  2.251051e+01
   endloop
 endfacet
 facet normal -7.796848e-01  6.261722e-01 -1.101282e-04
   outer loop
     vertex -2.345156e+01  1.870894e+01  5.300000e+01
     vertex -2.310283e+01  1.913790e+01  2.310283e+01
     vertex -2.367065e+01  1.843098e+01  2.367065e+01
   endloop
 endfacet
 facet normal -7.712101e-01  6.365807e-01  1.380654e-04
   outer loop
     vertex -2.345156e+01  1.870894e+01  5.300000e+01
     vertex -2.281461e+01  1.948059e+01  5.300000e+01
     vertex -2.310283e+01  1.913790e+01  2.310283e+01
   endloop
 endfacet
 facet normal -7.981913e-01  6.024041e-01 -9.435418e-05
   outer loop
     vertex -2.406242e+01  1.791647e+01  5.300000e+01
     vertex -2.367065e+01  1.843098e+01  2.367065e+01
     vertex -2.421385e+01  1.771132e+01  2.421385e+01
   endloop
 endfacet
 facet normal -7.920099e-01  6.105082e-01  1.303848e-04
   outer loop
     vertex -2.406242e+01  1.791647e+01  5.300000e+01
     vertex -2.345156e+01  1.870894e+01  5.300000e+01
     vertex -2.367065e+01  1.843098e+01  2.367065e+01
   endloop
 endfacet
 facet normal -8.158755e-01  5.782276e-01 -6.516214e-05
   outer loop
     vertex -2.464652e+01  1.710407e+01  5.300000e+01
     vertex -2.421385e+01  1.771132e+01  2.421385e+01
     vertex -2.473238e+01  1.697974e+01  2.473238e+01
   endloop
 endfacet
 facet normal -8.119286e-01  5.837567e-01  1.107984e-04
   outer loop
     vertex -2.464652e+01  1.710407e+01  5.300000e+01
     vertex -2.406242e+01  1.791647e+01  5.300000e+01
     vertex -2.421385e+01  1.771132e+01  2.421385e+01
   endloop
 endfacet
 facet normal -8.327360e-01  5.536703e-01 -2.021626e-05
   outer loop
     vertex -2.520320e+01  1.627264e+01  5.300000e+01
     vertex -2.473238e+01  1.697974e+01  2.473238e+01
     vertex -2.522621e+01  1.623701e+01  2.522621e+01
   endloop
 endfacet
 facet normal -8.309442e-01  5.563558e-01  7.680323e-05
   outer loop
     vertex -2.520320e+01  1.627264e+01  5.300000e+01
     vertex -2.464652e+01  1.710407e+01  5.300000e+01
     vertex -2.473238e+01  1.697974e+01  2.473238e+01
   endloop
 endfacet
 facet normal -8.487768e-01  5.287513e-01  2.504274e-05
   outer loop
     vertex -2.569536e+01  1.548389e+01  2.569536e+01
     vertex -2.520320e+01  1.627264e+01  5.300000e+01
     vertex -2.522621e+01  1.623701e+01  2.522621e+01
   endloop
 endfacet
 facet normal -8.490354e-01  5.283359e-01  4.170345e-05
   outer loop
     vertex -2.573184e+01  1.542311e+01  5.300000e+01
     vertex -2.520320e+01  1.627264e+01  5.300000e+01
     vertex -2.569536e+01  1.548389e+01  2.569536e+01
   endloop
 endfacet
 facet normal -8.640234e-01  5.034517e-01 -3.371266e-05
   outer loop
     vertex -2.613984e+01  1.472111e+01  2.613984e+01
     vertex -2.573184e+01  1.542311e+01  5.300000e+01
     vertex -2.569536e+01  1.548389e+01  2.569536e+01
   endloop
 endfacet
 facet normal -8.784410e-01  4.778507e-01 -7.974710e-05
   outer loop
     vertex -2.623186e+01  1.455643e+01  5.300000e+01
     vertex -2.613984e+01  1.472111e+01  2.613984e+01
     vertex -2.655967e+01  1.394939e+01  2.655967e+01
   endloop
 endfacet
 facet normal -8.661821e-01  4.997284e-01  9.638880e-05
   outer loop
     vertex -2.623186e+01  1.455643e+01  5.300000e+01
     vertex -2.573184e+01  1.542311e+01  5.300000e+01
     vertex -2.613984e+01  1.472111e+01  2.613984e+01
   endloop
 endfacet
 facet normal -8.920312e-01  4.519737e-01 -1.100647e-04
   outer loop
     vertex -2.670270e+01  1.367355e+01  5.300000e+01
     vertex -2.655967e+01  1.394939e+01  2.655967e+01
     vertex -2.695491e+01  1.316943e+01  2.695491e+01
   endloop
 endfacet
 facet normal -8.823653e-01  4.705650e-01  1.361785e-04
   outer loop
     vertex -2.670270e+01  1.367355e+01  5.300000e+01
     vertex -2.623186e+01  1.455643e+01  5.300000e+01
     vertex -2.655967e+01  1.394939e+01  2.655967e+01
   endloop
 endfacet
 facet normal -9.047963e-01  4.258445e-01 -1.215430e-04
   outer loop
     vertex -2.714383e+01  1.277546e+01  5.300000e+01
     vertex -2.695491e+01  1.316943e+01  2.695491e+01
     vertex -2.732560e+01  1.238192e+01  2.732560e+01
   endloop
 endfacet
 facet normal -8.975670e-01  4.408781e-01  1.583031e-04
   outer loop
     vertex -2.714383e+01  1.277546e+01  5.300000e+01
     vertex -2.670270e+01  1.367355e+01  5.300000e+01
     vertex -2.695491e+01  1.316943e+01  2.695491e+01
   endloop
 endfacet
 facet normal -9.117702e-01  4.107008e-01  1.599550e-04
   outer loop
     vertex -2.755477e+01  1.186316e+01  5.300000e+01
     vertex -2.714383e+01  1.277546e+01  5.300000e+01
     vertex -2.732560e+01  1.238192e+01  2.732560e+01
   endloop
 endfacet
 facet normal -9.167396e-01  3.994852e-01 -1.110174e-04
   outer loop
     vertex -2.755477e+01  1.186316e+01  5.300000e+01
     vertex -2.732560e+01  1.238192e+01  2.732560e+01
     vertex -2.767182e+01  1.158752e+01  2.767182e+01
   endloop
 endfacet
 facet normal -9.249591e-01  3.800666e-01  1.382928e-04
   outer loop
     vertex -2.793506e+01  1.093766e+01  5.300000e+01
     vertex -2.755477e+01  1.186316e+01  5.300000e+01
     vertex -2.767182e+01  1.158752e+01  2.767182e+01
   endloop
 endfacet
 facet normal -9.277353e-01  3.732388e-01 -6.574431e-05
   outer loop
     vertex -2.793506e+01  1.093766e+01  5.300000e+01
     vertex -2.767182e+01  1.158752e+01  2.767182e+01
     vertex -2.798620e+01  1.080615e+01  2.798620e+01
   endloop
 endfacet
 facet normal -9.371192e-01  3.490096e-01  8.082754e-05
   outer loop
     vertex -2.828427e+01  1.000000e+01  5.300000e+01
     vertex -2.793506e+01  1.093766e+01  5.300000e+01
     vertex -2.798620e+01  1.080615e+01  2.798620e+01
   endloop
 endfacet
 facet normal -9.379375e-01  3.468042e-01  0.000000e+00
   outer loop
     vertex -2.828427e+01  1.000000e+01  5.300000e+01
     vertex -2.798620e+01  1.080615e+01  2.798620e+01
     vertex -2.828427e+01  1.000000e+01  2.828427e+01
   endloop
 endfacet
endsolid
